<?xml version="1.0" encoding="UTF-8"?>
<svg version="1.1" xmlns="http://www.w3.org/2000/svg" width="735" height="587">
<path d="M0 0 C1.69028262 0.82846089 3.35518581 1.70958258 5 2.625 C5.97066406 3.16511719 6.94132812 3.70523438 7.94140625 4.26171875 C14.00959392 7.71043333 20.0243279 11.24825472 26.0390625 14.7890625 C31.74100446 18.13361243 37.48349303 21.37110337 43.29736328 24.51660156 C47.89883366 27.04221439 52.41381817 29.71335141 56.9375 32.375 C66.24030518 37.82515073 75.57507372 43.21561226 84.9375 48.5625 C85.52723602 48.8995697 86.11697205 49.2366394 86.72457886 49.58392334 C88.42924388 50.5579921 90.13453617 51.53096285 91.83984375 52.50390625 C92.89026855 53.10348145 93.94069336 53.70305664 95.02294922 54.32080078 C98.45278806 56.25539415 101.91280202 58.12972133 105.39282227 59.97241211 C107 61 107 61 108 63 C108.09925592 64.66562506 108.13506688 66.33519776 108.14044189 68.00376892 C108.14615204 69.06236618 108.15186218 70.12096344 108.15774536 71.2116394 C108.15942215 72.96107346 108.15942215 72.96107346 108.16113281 74.74584961 C108.16609772 75.97027267 108.17106262 77.19469574 108.17617798 78.45622253 C108.18829892 81.81985057 108.19574774 85.18341634 108.20018864 88.54705882 C108.20311801 90.64733255 108.20722252 92.7476008 108.21169281 94.84787178 C108.22536804 101.41581731 108.23503504 107.98375034 108.2388947 114.55170912 C108.24337816 122.13991541 108.26093913 129.72794181 108.2898953 137.31609339 C108.31148875 143.17770698 108.3215977 149.03926987 108.32293582 154.90092283 C108.32398538 158.40377021 108.32992498 161.90644849 108.34775543 165.40925407 C108.36724771 169.31448085 108.36295648 173.21948148 108.35644531 177.12475586 C108.3656601 178.289021 108.37487488 179.45328613 108.3843689 180.65283203 C108.37601517 182.24495766 108.37601517 182.24495766 108.36749268 183.86924744 C108.36895924 184.79305175 108.3704258 185.71685606 108.3719368 186.66865444 C107.9243688 189.47406569 107.21019928 190.27638955 105 192 C103.02885147 193.21477758 101.02312923 194.37391864 99 195.5 C97.72357881 196.21677248 96.44755774 196.93425782 95.171875 197.65234375 C94.1519043 198.2244458 94.1519043 198.2244458 93.11132812 198.80810547 C89.47302139 200.86201544 85.86282566 202.96419787 82.25 205.0625 C75.71004271 208.85477852 69.16385296 212.63606278 62.61352539 216.41040039 C53.99303173 221.37765622 45.3786312 226.35407021 36.79296875 231.38134766 C32.86771419 233.67772446 28.93594105 235.962816 25.00390625 238.24755859 C22.93288575 239.4557661 20.86537526 240.67000353 18.80078125 241.88916016 C15.64552188 243.7517718 12.48012919 245.59602474 9.3125 247.4375 C8.34997314 248.01193848 7.38744629 248.58637695 6.39575195 249.17822266 C5.49816162 249.69562012 4.60057129 250.21301758 3.67578125 250.74609375 C2.89114502 251.20685303 2.10650879 251.6676123 1.2980957 252.14233398 C-1.63046072 253.23529252 -3.04024983 252.94567837 -6 252 C-8.49023438 250.81616211 -8.49023438 250.81616211 -11.09375 249.33984375 C-12.05539062 248.79956543 -13.01703125 248.25928711 -14.0078125 247.70263672 C-14.99523437 247.1407666 -15.98265625 246.57889648 -17 246 C-18.90596123 244.93828352 -20.8122097 243.87708252 -22.71875 242.81640625 C-24.64632053 241.73263689 -26.57340269 240.64799849 -28.5 239.5625 C-29.45519531 239.02818359 -30.41039062 238.49386719 -31.39453125 237.94335938 C-37.21723132 234.66168877 -42.89428789 231.21947921 -48.49755859 227.57519531 C-51.86253691 225.45706457 -55.34639663 223.60357315 -58.8515625 221.73046875 C-62.78432325 219.56891415 -66.64017989 217.28856965 -70.5 215 C-75.2092244 212.20856629 -79.92210364 209.45834805 -84.75 206.875 C-89.93268458 204.09462362 -94.90271782 201.00955378 -99.89453125 197.90234375 C-103.8615645 195.47222401 -107.90284453 193.20208873 -112 191 C-112 190.01 -112 189.02 -112 188 C-110.49389648 186.71655273 -110.49389648 186.71655273 -108.37109375 185.43359375 C-107.59145264 184.9535791 -106.81181152 184.47356445 -106.00854492 183.97900391 C-105.1601001 183.47030762 -104.31165527 182.96161133 -103.4375 182.4375 C-101.67089928 181.35184653 -99.90528343 180.26458894 -98.140625 179.17578125 C-96.82288086 178.36681396 -96.82288086 178.36681396 -95.47851562 177.54150391 C-92.16173624 175.47864486 -88.91992903 173.31678688 -85.6875 171.125 C-79.49097809 166.94314038 -73.19377483 162.93177902 -66.875 158.9375 C-58.77450429 153.81395553 -50.8039525 148.56583782 -43 143 C-46.27162387 144.03919256 -49.54220491 145.08163361 -52.8125 146.125 C-53.87734619 146.46466797 -54.94219238 146.80433594 -56.03930664 147.15429688 C-63.75705179 149.62363531 -71.46299629 152.12756309 -79.1640625 154.6484375 C-80.13137802 154.96475128 -81.09869354 155.28106506 -82.09532166 155.60696411 C-87.99561345 157.53637144 -87.99561345 157.53637144 -93.89395142 159.47174072 C-96.68759091 160.38994902 -99.48236052 161.30464164 -102.27734375 162.21875 C-103.12837677 162.4996347 -103.97940979 162.78051941 -104.85623169 163.06991577 C-110.77285212 165 -110.77285212 165 -113 165 C-113.91771373 141.66175884 -114.25489853 118.35515233 -114 95 C-113.9870993 93.80056763 -113.9870993 93.80056763 -113.97393799 92.5769043 C-113.91953536 87.88529735 -113.84261704 83.19482691 -113.73553467 78.50411987 C-113.70376155 77.05444594 -113.67654753 75.60466421 -113.65411377 74.15481567 C-113.62122623 72.16151036 -113.56701549 70.16859081 -113.51171875 68.17578125 C-113.48553467 67.05083252 -113.45935059 65.92588379 -113.43237305 64.7668457 C-113 62 -113 62 -111.8671875 60.31494141 C-109.25147274 58.47285986 -106.50205758 57.15955828 -103.61328125 55.78515625 C-96.5738709 52.36486327 -89.88273571 48.49232568 -83.1875 44.4375 C-80.82291612 43.01775882 -78.45510828 41.60347804 -76.0859375 40.19140625 C-75.49289322 39.83784058 -74.89984894 39.4842749 -74.28883362 39.11999512 C-68.35727811 35.59636501 -62.34460714 32.22320967 -56.3125 28.875 C-47.96375031 24.23974037 -39.67641703 19.51541287 -31.4375 14.6875 C-29.46224791 13.5338399 -27.48698775 12.38019363 -25.51171875 11.2265625 C-22.82635313 9.65711445 -20.14305489 8.0847794 -17.46728516 6.49902344 C-15.23426414 5.17612419 -12.99336843 3.86774683 -10.75 2.5625 C-10.11247803 2.17860107 -9.47495605 1.79470215 -8.81811523 1.39916992 C-5.36391389 -0.59050719 -3.75307697 -1.32687592 0 0 Z M-8.65234375 37.0703125 C-9.51358604 37.54837845 -9.51358604 37.54837845 -10.39222717 38.03610229 C-11.61597924 38.71607375 -12.83914145 39.39710768 -14.06176758 40.07910156 C-15.89704243 41.10244107 -17.73447617 42.12180994 -19.57226562 43.140625 C-25.63730253 46.51106937 -31.64614316 49.95412477 -37.57983398 53.55224609 C-42.02188638 56.20950128 -46.54765751 58.71915005 -51.0625 61.25 C-58.32608863 65.33827187 -65.56726974 69.45855603 -72.75 73.6875 C-73.44617432 74.09709961 -74.14234863 74.50669922 -74.85961914 74.92871094 C-77.61955606 76.56067364 -80.33145301 78.22096867 -83 80 C-83.43958873 82.66576176 -83.43958873 82.66576176 -83.34057617 85.82666016 C-83.34034958 87.04777496 -83.34012299 88.26888977 -83.33988953 89.52700806 C-83.32456852 90.86436323 -83.30892051 92.2017147 -83.29296875 93.5390625 C-83.28737422 94.90383438 -83.28310344 96.26861228 -83.28010559 97.63339233 C-83.2686454 101.22730107 -83.23916871 104.82084667 -83.20599365 108.41461182 C-83.17531771 112.0810454 -83.16160559 115.7475376 -83.14648438 119.4140625 C-83.11429964 126.60954064 -83.06308972 133.80471946 -83 141 C-75.86606248 140.48462048 -68.98187183 139.55994099 -62 138 C-62.02522232 137.44591461 -62.05044464 136.89182922 -62.07643127 136.32095337 C-62.32375986 130.51224371 -62.44921765 124.70961772 -62.5065918 118.89599609 C-62.54357063 116.73249208 -62.61080804 114.5692731 -62.7097168 112.40771484 C-63.47374691 95.05503083 -63.47374691 95.05503083 -59.48568726 90.12985229 C-55.51811298 86.84754812 -51.00561369 84.86907402 -46.26101685 82.95422363 C-42.87056979 81.52334323 -39.78714698 79.65837367 -36.63671875 77.76953125 C-35.47248698 77.10169825 -34.3064791 76.43695151 -33.13867188 75.77539062 C-30.23520007 74.12401023 -27.33175849 72.47259129 -24.4302063 70.81784058 C-22.72909338 69.84904506 -21.02545587 68.88468678 -19.32177734 67.92041016 C-17.07700598 66.62264656 -14.85338943 65.28769388 -12.65087891 63.91943359 C-11.59690918 63.2692627 -10.54293945 62.6190918 -9.45703125 61.94921875 C-8.52479736 61.35842529 -7.59256348 60.76763184 -6.63208008 60.15893555 C-3.52139401 58.7892642 -2.1822283 58.94160921 1 60 C3.453125 61.35546875 3.453125 61.35546875 6.25 63.1875 C12.80679039 67.37914125 19.57164991 71.16257824 26.375 74.9375 C34.26348516 79.31660784 42.10276358 83.73902971 49.76123047 88.51147461 C52.66248672 90.42452682 52.66248672 90.42452682 56 91 C56 114.1 56 137.2 56 161 C53.525 161.99 53.525 161.99 51 163 C49.43792205 163.87965711 47.89513251 164.79425265 46.37109375 165.73828125 C40.02460881 169.61140878 33.54789893 173.23658374 27.06079102 176.86767578 C22.16081739 179.61918436 17.29343734 182.40326991 12.4921875 185.32421875 C11.6374585 185.83895752 10.78272949 186.35369629 9.90209961 186.8840332 C8.29809087 187.85438302 6.70199962 188.837984 5.11547852 189.83666992 C1.80202902 191.82874379 -0.2228398 192.99613833 -4.14453125 193.015625 C-7.47591206 191.83072895 -10.1578336 190.30105538 -13.125 188.375 C-14.27007376 187.64464108 -15.41592481 186.91549958 -16.5625 186.1875 C-17.13613281 185.82011719 -17.70976562 185.45273437 -18.30078125 185.07421875 C-25.4485367 180.55552278 -32.86928661 176.47342231 -40.328125 172.49609375 C-43.91336942 170.48856654 -47.31744464 168.22154279 -50.7109375 165.90625 C-53.03963737 164.72250785 -53.03963737 164.72250785 -55.72265625 165.71875 C-58.39230188 167.22071187 -58.73391834 168.29902579 -60 171 C-61.31403276 171.70394612 -62.6520257 172.36345658 -64 173 C-66.06776444 174.59643578 -68.02160437 176.29138559 -70 178 C-68.78105119 181.65684643 -67.88990216 181.94316328 -64.625 183.8125 C-63.26761719 184.59560547 -63.26761719 184.59560547 -61.8828125 185.39453125 C-58.17676362 187.45846904 -54.45234207 189.48637731 -50.71875 191.5 C-48.10562124 192.94172621 -45.55035785 194.45041548 -43 196 C-38.77612158 198.56213315 -34.47937767 200.94631889 -30.1328125 203.29296875 C-26.31970232 205.37068589 -22.53361031 207.49415652 -18.75 209.625 C-18.0885498 209.99729736 -17.42709961 210.36959473 -16.74560547 210.75317383 C-16.10252441 211.11564209 -15.45944336 211.47811035 -14.796875 211.8515625 C-14.16458984 212.20379883 -13.53230469 212.55603516 -12.88085938 212.91894531 C-11.61359722 213.64732496 -10.36454514 214.40822153 -9.13476562 215.19824219 C-6.53879004 216.83300519 -4.62410717 217.99706072 -1.51171875 218.01171875 C1.94054191 216.6211503 5.04407161 214.78133345 8.1875 212.8125 C8.85168945 212.40539795 9.51587891 211.9982959 10.20019531 211.57885742 C11.52962958 210.7638298 12.85731026 209.94593397 14.18310547 209.125 C19.68846389 205.71614598 25.22474429 202.39199425 30.92578125 199.3203125 C37.04306681 195.99583414 43.09278429 192.55682532 49.13354492 189.09594727 C50.93142325 188.06598124 52.7302795 187.03774056 54.52929688 186.00976562 C58.75569045 183.61753457 58.75569045 183.61753457 62.92234802 181.1245575 C65 180 65 180 68.04554749 178.92292786 C71.82468574 177.34134476 74.18037536 175.99617229 77 173 C79.35230261 166.48348349 78.71270565 159.07286586 78.62890625 152.25390625 C78.63953813 150.19797284 78.65358332 148.1420545 78.67088318 146.08616638 C78.69305722 141.7821853 78.67146159 137.48119311 78.61938477 133.17749023 C78.55662478 127.67271687 78.60631969 122.17571826 78.68945408 116.67144871 C78.74044559 112.42685821 78.7296575 108.1841057 78.70066643 103.93937492 C78.69452985 101.91124888 78.70783103 99.88296403 78.74127388 97.85510445 C79.30383453 87.60254379 79.30383453 87.60254379 75.73534012 78.39156342 C72.24350574 75.34871829 68.28392298 73.71248535 64 72 C62.08350667 70.93622749 60.17932598 69.849477 58.296875 68.7265625 C56.4490971 67.69060006 54.60011912 66.65677545 52.75 65.625 C46.02685025 61.85012342 39.32128455 58.05502981 32.6875 54.125 C25.74681194 50.01625183 18.7799152 45.95368394 11.79800415 41.91546631 C10.60269371 41.22376588 9.40784597 40.53126521 8.21347046 39.83795166 C6.53937889 38.86640443 4.86347886 37.8979754 3.1875 36.9296875 C2.21167969 36.36491699 1.23585938 35.80014648 0.23046875 35.21826172 C-3.58409135 33.13478373 -4.91224209 34.99219458 -8.65234375 37.0703125 Z M17.92456055 111.91796875 C16.12325935 112.21828003 16.12325935 112.21828003 14.28556824 112.5246582 C12.99894791 112.743396 11.71232758 112.96213379 10.38671875 113.1875 C9.04870956 113.41205704 7.71063995 113.63625427 6.37251282 113.86010742 C2.8620495 114.44835633 -0.64757447 115.04147186 -4.15704346 115.63562012 C-7.7428714 116.24180426 -11.32947521 116.8433608 -14.91601562 117.4453125 C-21.94477465 118.62569195 -28.97265701 119.81121677 -36 121 C-35.27633685 124.34430737 -34.18284504 126.34262343 -32 129 C-24.87980235 128.36843933 -18.29081514 126.5453979 -11.4375 124.5625 C-10.33986328 124.24990234 -9.24222656 123.93730469 -8.11132812 123.61523438 C-5.07264284 122.74887022 -2.03608725 121.87541666 1 121 C2.42563903 120.59195069 3.85139165 120.18429764 5.27734375 119.77734375 C6.17582031 119.52082031 7.07429688 119.26429688 8 119 C6.17317973 120.82682027 3.57705744 121.58422239 1.2421875 122.6171875 C0.05882812 123.14183594 -1.12453125 123.66648437 -2.34375 124.20703125 C-3.60415968 124.76303666 -4.86457641 125.31902612 -6.125 125.875 C-7.36206901 126.42297431 -8.59904924 126.97114908 -9.8359375 127.51953125 C-15.54348404 130.0459236 -21.25415465 132.56185197 -27 135 C-26.71653722 136.91789713 -26.4228972 138.83429183 -26.125 140.75 C-25.96257812 141.81734375 -25.80015625 142.8846875 -25.6328125 143.984375 C-25.07659208 147.27013409 -25.07659208 147.27013409 -23 151 C-20.36 148.69 -17.72 146.38 -15 144 C-15.495 141.525 -15.495 141.525 -16 139 C-16.99 138.34 -17.98 137.68 -19 137 C-12.74137065 137.51589569 -6.68430015 138.37088948 -0.54296875 139.6953125 C2.45858224 140.05494534 4.15054028 140.07129148 7 139 C9.0999276 136.91766956 10.90992902 134.91572507 12.75 132.625 C13.26860596 131.99811279 13.78721191 131.37122559 14.3215332 130.7253418 C15.37993462 129.44312597 16.43310028 128.15657013 17.48095703 126.86572266 C18.88641658 125.13950571 20.3107964 123.43189306 21.74609375 121.73046875 C26.11055202 116.79472491 26.11055202 116.79472491 29 111 C25.19311193 110.89698896 21.67738126 111.28591474 17.92456055 111.91796875 Z " fill="#FCFCFD" transform="translate(369,99)"/>
<path d="M0 0 C4.16909405 0.48104931 5.68087055 2.29096633 8.25 5.375 C10.46011171 8.36993844 12.51941073 11.45194002 14.5625 14.5625 C15.11228516 15.38169922 15.66207031 16.20089844 16.22851562 17.04492188 C20.25 23.11461568 20.25 23.11461568 20.25 25.375 C20.91 25.375 21.57 25.375 22.25 25.375 C22.24214478 24.29230835 22.24214478 24.29230835 22.23413086 23.18774414 C22.21342642 19.93767151 22.20036082 16.68761272 22.1875 13.4375 C22.17912109 12.30119141 22.17074219 11.16488281 22.16210938 9.99414062 C22.15727539 8.37475586 22.15727539 8.37475586 22.15234375 6.72265625 C22.14448853 5.22230835 22.14448853 5.22230835 22.13647461 3.69165039 C22.25 1.375 22.25 1.375 23.25 0.375 C29.77542373 0.13771186 29.77542373 0.13771186 32.25 1.375 C32.25 16.555 32.25 31.735 32.25 47.375 C23.25 47.375 23.25 47.375 20.75952148 45.171875 C20.13634033 44.16640625 19.51315918 43.1609375 18.87109375 42.125 C18.17822266 41.0421875 17.48535156 39.959375 16.77148438 38.84375 C16.07612038 37.68792236 15.3814676 36.53166658 14.6875 35.375 C13.96061389 34.21690478 13.23082178 33.06062814 12.49804688 31.90625 C10.71928967 29.07908623 8.97232506 26.23676787 7.25 23.375 C7.22494385 24.06650146 7.1998877 24.75800293 7.17407227 25.47045898 C7.05847839 28.58467866 6.93558758 31.69856789 6.8125 34.8125 C6.77318359 35.90111328 6.73386719 36.98972656 6.69335938 38.11132812 C6.65146484 39.14580078 6.60957031 40.18027344 6.56640625 41.24609375 C6.51141968 42.68359985 6.51141968 42.68359985 6.45532227 44.15014648 C6.25 46.375 6.25 46.375 5.25 47.375 C3.73071962 47.44679964 2.20832518 47.45892007 0.6875 47.4375 C-0.13878906 47.42847656 -0.96507812 47.41945313 -1.81640625 47.41015625 C-2.45449219 47.39855469 -3.09257812 47.38695312 -3.75 47.375 C-3.77527002 40.84221214 -3.79283292 34.30943679 -3.80493164 27.77661133 C-3.80997317 25.55232268 -3.81680623 23.32803737 -3.82543945 21.10375977 C-3.83751298 17.91421691 -3.84322996 14.72471771 -3.84765625 11.53515625 C-3.85281754 10.53412369 -3.85797882 9.53309113 -3.86329651 8.50172424 C-3.86337204 7.58084518 -3.86344757 6.65996613 -3.86352539 5.71118164 C-3.865746 4.89621719 -3.86796661 4.08125275 -3.87025452 3.24159241 C-3.67533354 0.21602615 -3.04241943 0.41487538 0 0 Z " fill="#F7F8FA" transform="translate(385.75,387.625)"/>
<path d="M0 0 C0.99 -0.020625 1.98 -0.04125 3 -0.0625 C9.44328709 -0.09695608 13.93655757 0.50784075 19.0625 4.75 C21.76754891 8.16690388 21.44713601 11.95755585 21.5 16.125 C21.52578125 17.33929688 21.5515625 18.55359375 21.578125 19.8046875 C21.10784903 24.74258517 19.41843184 27.04678122 16.01953125 30.546875 C12.44694025 32.74384211 10.09665228 32.65548233 5.9375 32.5 C4.68324219 32.46390625 3.42898438 32.4278125 2.13671875 32.390625 C1.18410156 32.34421875 0.23148437 32.2978125 -0.75 32.25 C-0.73839844 33.24902344 -0.72679687 34.24804688 -0.71484375 35.27734375 C-0.70582031 36.56769531 -0.69679688 37.85804688 -0.6875 39.1875 C-0.67589844 40.47527344 -0.66429687 41.76304687 -0.65234375 43.08984375 C-0.75 46.25 -0.75 46.25 -1.75 47.25 C-3.41429051 47.34823937 -5.08281931 47.37973631 -6.75 47.375 C-8.11125 47.37886719 -8.11125 47.37886719 -9.5 47.3828125 C-11.75 47.25 -11.75 47.25 -12.75 46.25 C-12.8428726 44.83774954 -12.86746772 43.42091066 -12.86352539 42.00561523 C-12.86344986 41.10475693 -12.86337433 40.20389862 -12.86329651 39.27574158 C-12.85813522 38.29658279 -12.85297394 37.31742401 -12.84765625 36.30859375 C-12.8462413 35.31118668 -12.84482635 34.3137796 -12.84336853 33.28614807 C-12.83775114 30.08656876 -12.82519571 26.88705831 -12.8125 23.6875 C-12.80748724 21.52408955 -12.80292395 19.36067801 -12.79882812 17.19726562 C-12.78777607 11.88148675 -12.77102104 6.56574829 -12.75 1.25 C-8.91444778 -0.66777611 -4.21919611 0.0216369 0 0 Z M-0.75 11.25 C-0.75 14.88 -0.75 18.51 -0.75 22.25 C2.55 22.25 5.85 22.25 9.25 22.25 C9.25 18.62 9.25 14.99 9.25 11.25 C5.30523353 10.44311595 3.25001715 10.24999571 -0.75 11.25 Z " fill="#F8F9FB" transform="translate(494.75,387.75)"/>
<path d="M0 0 C1.21042969 -0.00128906 2.42085937 -0.00257813 3.66796875 -0.00390625 C4.94285156 -0.00003906 6.21773437 0.00382812 7.53125 0.0078125 C9.44357422 0.00201172 9.44357422 0.00201172 11.39453125 -0.00390625 C13.21017578 -0.00197266 13.21017578 -0.00197266 15.0625 0 C16.18205078 0.00112793 17.30160156 0.00225586 18.45507812 0.00341797 C21.03125 0.1328125 21.03125 0.1328125 22.03125 1.1328125 C22.10304964 2.65209288 22.11517007 4.17448732 22.09375 5.6953125 C22.08472656 6.52160156 22.07570312 7.34789062 22.06640625 8.19921875 C22.05480469 8.83730469 22.04320312 9.47539062 22.03125 10.1328125 C16.66040894 10.81482406 11.44624441 11.24802515 6.03125 11.1328125 C5.70125 13.4428125 5.37125 15.7528125 5.03125 18.1328125 C6.01867187 18.10960937 7.00609375 18.08640625 8.0234375 18.0625 C9.30476563 18.04445313 10.58609375 18.02640625 11.90625 18.0078125 C13.18242187 17.98460937 14.45859375 17.96140625 15.7734375 17.9375 C19.03125 18.1328125 19.03125 18.1328125 21.03125 20.1328125 C21.21875 23.6953125 21.21875 23.6953125 21.03125 27.1328125 C20.03125 28.1328125 20.03125 28.1328125 16.65234375 28.23046875 C15.25777923 28.22379619 13.86323257 28.21183782 12.46875 28.1953125 C11.75783203 28.19080078 11.04691406 28.18628906 10.31445312 28.18164062 C8.55334987 28.16982114 6.79228964 28.15188513 5.03125 28.1328125 C5.03125 31.1028125 5.03125 34.0728125 5.03125 37.1328125 C10.64125 37.1328125 16.25125 37.1328125 22.03125 37.1328125 C22.03125 40.4328125 22.03125 43.7328125 22.03125 47.1328125 C18.06194011 47.15747131 14.09265966 47.17565273 10.12329102 47.18774414 C8.77204614 47.19278307 7.42080674 47.19961427 6.06958008 47.20825195 C4.13104566 47.22033669 2.192472 47.22551078 0.25390625 47.23046875 C-1.49780884 47.23832397 -1.49780884 47.23832397 -3.28491211 47.24633789 C-5.96875 47.1328125 -5.96875 47.1328125 -6.96875 46.1328125 C-7.06679851 44.7260603 -7.09673186 43.31446114 -7.09814453 41.90429688 C-7.10129669 41.00666626 -7.10444885 40.10903564 -7.10769653 39.1842041 C-7.1056723 38.20818237 -7.10364807 37.23216064 -7.1015625 36.2265625 C-7.10251923 35.2315271 -7.10347595 34.2364917 -7.10446167 33.21130371 C-7.1051436 31.10294532 -7.10328844 28.99458485 -7.09912109 26.88623047 C-7.09377303 23.64676223 -7.09906567 20.40743265 -7.10546875 17.16796875 C-7.10480797 15.12499969 -7.10352681 13.08203072 -7.1015625 11.0390625 C-7.10358673 10.06304077 -7.10561096 9.08701904 -7.10769653 8.0814209 C-7.10454437 7.18379028 -7.10139221 6.28615967 -7.09814453 5.36132812 C-7.09734894 4.56714478 -7.09655334 3.77296143 -7.09573364 2.95471191 C-6.8093687 -1.15391271 -3.36651583 0.00339171 0 0 Z " fill="#F8F9FB" transform="translate(226.96875,387.8671875)"/>
<path d="M0 0 C0.68429077 -0.00095673 1.36858154 -0.00191345 2.0736084 -0.00289917 C3.52286877 -0.0035808 4.97213218 -0.00172773 6.42138672 0.00244141 C8.64687928 0.00778998 10.87217001 0.0024959 13.09765625 -0.00390625 C14.50260461 -0.00324547 15.90755285 -0.0019643 17.3125 0 C18.59962891 0.00112793 19.88675781 0.00225586 21.21289062 0.00341797 C24.15625 0.1328125 24.15625 0.1328125 25.15625 1.1328125 C25.22804964 2.65209288 25.24017007 4.17448732 25.21875 5.6953125 C25.20972656 6.52160156 25.20070313 7.34789062 25.19140625 8.19921875 C25.17980469 8.83730469 25.16820312 9.47539062 25.15625 10.1328125 C24.51816406 10.19339844 23.88007813 10.25398438 23.22265625 10.31640625 C22.39636719 10.40019531 21.57007813 10.48398437 20.71875 10.5703125 C19.48318359 10.69212891 19.48318359 10.69212891 18.22265625 10.81640625 C16.16962975 10.92212065 16.16962975 10.92212065 15.15625 12.1328125 C15.08110463 13.61543057 15.0730938 15.10156002 15.09375 16.5859375 C15.10212891 17.51003418 15.11050781 18.43413086 15.11914062 19.38623047 C15.13138672 20.37510254 15.14363281 21.36397461 15.15625 22.3828125 C15.21559344 30.71382268 14.96567822 38.83617326 14.15625 47.1328125 C10.52625 47.1328125 6.89625 47.1328125 3.15625 47.1328125 C2.82625 35.2528125 2.49625 23.3728125 2.15625 11.1328125 C-0.15375 11.1328125 -2.46375 11.1328125 -4.84375 11.1328125 C-5.83375 10.8028125 -6.82375 10.4728125 -7.84375 10.1328125 C-7.87064216 8.65374358 -7.89009621 7.17453767 -7.90625 5.6953125 C-7.91785156 4.87160156 -7.92945313 4.04789062 -7.94140625 3.19921875 C-7.72391726 -1.40284828 -3.74946304 0.00328571 0 0 Z " fill="#F8F9FB" transform="translate(304.84375,387.8671875)"/>
<path d="M0 0 C0.8146875 0.00257813 1.629375 0.00515625 2.46875 0.0078125 C3.2834375 0.00523437 4.098125 0.00265625 4.9375 0 C6.96875 0.1328125 6.96875 0.1328125 7.96875 1.1328125 C8.12871166 3.72434357 8.22813697 6.2923327 8.28515625 8.88671875 C8.30593735 9.66216537 8.32671844 10.437612 8.34812927 11.23655701 C8.41370802 13.72271558 8.47254799 16.20898295 8.53125 18.6953125 C8.57442733 20.37696454 8.61804136 22.05860544 8.66210938 23.74023438 C8.76939779 27.87098121 8.87064132 32.00183786 8.96875 36.1328125 C13.91875 36.4628125 18.86875 36.7928125 23.96875 37.1328125 C23.96875 40.4328125 23.96875 43.7328125 23.96875 47.1328125 C15.05875 47.1328125 6.14875 47.1328125 -3.03125 47.1328125 C-3.05415439 40.5999729 -3.07408288 34.06727153 -3.08618164 27.53442383 C-3.09122317 25.31013518 -3.09805623 23.08584987 -3.10668945 20.86157227 C-3.11876298 17.67202941 -3.12447996 14.48253021 -3.12890625 11.29296875 C-3.13406754 10.29193619 -3.13922882 9.29090363 -3.14454651 8.25953674 C-3.14462204 7.33865768 -3.14469757 6.41777863 -3.14477539 5.46899414 C-3.146996 4.65402969 -3.14921661 3.83906525 -3.15150452 2.99940491 C-2.98104866 0.35358654 -2.64069344 0.17266073 0 0 Z " fill="#F7F8FA" transform="translate(442.03125,387.8671875)"/>
<path d="M0 0 C0.80308594 0.01417969 1.60617187 0.02835937 2.43359375 0.04296875 C3.64208984 0.05263672 3.64208984 0.05263672 4.875 0.0625 C6.87109375 0.23046875 6.87109375 0.23046875 7.87109375 1.23046875 C7.9640519 2.67336662 7.98855888 4.1207666 7.98461914 5.56665039 C7.98454361 6.48752945 7.98446808 7.40840851 7.98439026 8.35719299 C7.97922897 9.35822556 7.97406769 10.35925812 7.96875 11.390625 C7.96733505 12.41022812 7.9659201 13.42983124 7.96446228 14.48033142 C7.95884472 17.75123982 7.94628925 21.02208088 7.93359375 24.29296875 C7.92858101 26.50455631 7.92401771 28.71614493 7.91992188 30.92773438 C7.90886959 36.36200232 7.89211438 41.79623072 7.87109375 47.23046875 C6.05867323 47.25734154 4.24614142 47.2768059 2.43359375 47.29296875 C1.42425781 47.30457031 0.41492188 47.31617188 -0.625 47.328125 C-3.12890625 47.23046875 -3.12890625 47.23046875 -4.12890625 46.23046875 C-4.23202662 44.85987282 -4.26739578 43.48407216 -4.27416992 42.10961914 C-4.28054977 41.23523697 -4.28692963 40.3608548 -4.29350281 39.4599762 C-4.29461563 38.5089653 -4.29572845 37.55795441 -4.296875 36.578125 C-4.3002034 35.60765732 -4.3035318 34.63718964 -4.30696106 33.63731384 C-4.31203455 31.58023555 -4.31436926 29.523149 -4.31420898 27.46606445 C-4.31639451 24.30992131 -4.33454316 21.15412804 -4.35351562 17.99804688 C-4.35644958 16.00390745 -4.35843436 14.00976636 -4.359375 12.015625 C-4.36656052 11.06663834 -4.37374603 10.11765167 -4.38114929 9.13990784 C-4.37807266 8.2623735 -4.37499603 7.38483917 -4.37182617 6.48071289 C-4.37325119 5.70651505 -4.37467621 4.9323172 -4.37614441 4.13465881 C-3.9975358 1.21867389 -2.87584417 0.31132992 0 0 Z " fill="#F7F8FA" transform="translate(273.12890625,387.76953125)"/>
<path d="M0 0 C1.27423828 -0.00193359 1.27423828 -0.00193359 2.57421875 -0.00390625 C3.91419922 0.00189453 3.91419922 0.00189453 5.28125 0.0078125 C6.17457031 0.00394531 7.06789063 0.00007813 7.98828125 -0.00390625 C8.83777344 -0.00261719 9.68726563 -0.00132812 10.5625 0 C11.34689453 0.00112793 12.13128906 0.00225586 12.93945312 0.00341797 C14.78125 0.1328125 14.78125 0.1328125 15.78125 1.1328125 C15.90625 4.6328125 15.90625 4.6328125 15.78125 8.1328125 C14.78125 9.1328125 14.78125 9.1328125 12.83178711 9.24633789 C11.9991333 9.24110107 11.16647949 9.23586426 10.30859375 9.23046875 C9.40947266 9.22724609 8.51035156 9.22402344 7.58398438 9.22070312 C6.63845703 9.21232422 5.69292969 9.20394531 4.71875 9.1953125 C3.76935547 9.19080078 2.81996094 9.18628906 1.84179688 9.18164062 C-0.51178065 9.1698136 -2.86523477 9.15333275 -5.21875 9.1328125 C-5.31640625 2.98046875 -5.31640625 2.98046875 -5.21875 1.1328125 C-3.66268249 -0.42325501 -2.15917629 0.00310481 0 0 Z " fill="#F5F6F9" transform="translate(348.21875,408.8671875)"/>
<path d="M0 0 C6.59714419 0.48489648 13.00885339 1.27195957 19.4921875 2.59765625 C22.03903752 3.00626303 24.42531411 3.06921199 27 3 C27 3.66 27 4.32 27 5 C19.98475852 4.44210432 12.99017804 3.81552077 6 3 C6 4.65 6 6.3 6 8 C5.62875 7.13375 5.62875 7.13375 5.25 6.25 C3.83316683 3.6997003 2.12372463 1.98214299 0 0 Z " fill="#DCE2EF" transform="translate(349,235)"/>
<path d="M0 0 C0.33 0.66 0.66 1.32 1 2 C-1.43218059 3.19963643 -3.86970578 4.38484438 -6.3125 5.5625 C-7.00279297 5.90474609 -7.69308594 6.24699219 -8.40429688 6.59960938 C-13.66015625 9.11328125 -13.66015625 9.11328125 -17 8 C-15.68 7.34 -14.36 6.68 -13 6 C-13.33 5.34 -13.66 4.68 -14 4 C-9.38 2.68 -4.76 1.36 0 0 Z " fill="#DCE2EE" transform="translate(377,217)"/>
<path d="M0 0 C-1.625 1.5625 -1.625 1.5625 -4 3 C-7.25 2.6875 -7.25 2.6875 -10 2 C-6.3558226 -0.4294516 -4.28758728 -0.16179575 0 0 Z " fill="#EEF1F7" transform="translate(366,222)"/>
</svg>
